<svg fill="none" height="20" viewBox="0 0 21 20" width="21" xmlns="http://www.w3.org/2000/svg"><g clip-rule="evenodd" fill-rule="evenodd"><path d="m4.14941 8.99646h6.28999v2.00004h-6.28999z" fill="#9f8fca"/><path d="m2.02398 2.40386 2.88675 6.38031c.00539.01192.01055.02394.01547.03605.30751.75743.30751 1.60488 0 2.36228-.00492.0122-.01007.0242-.01546.0361l-2.8868 6.3805c-.05436.156-.00481.2798.05158.3398.01229.013.022.0201.02806.0238.00614-.0023.01559-.0064.02884-.014.02638-.0151.05343-.029.08107-.0417l15.25471-6.9792c.1586-.0967.2908-.2314.3846-.3922.0999-.1712.1525-.3659.1525-.56418 0-.19826-.0526-.39295-.1525-.56416-.0938-.16087-.226-.29555-.3846-.39219l-15.25471-6.97928c-.01548-.00708-.03079-.01456-.04589-.02243-.01125-.00586-.01916-.00882-.02369-.01027-.0021-.00068-.0037-.0011-.00482-.00136l-.00179.00065c-.0025.001-.0064.0028-.01154.00587-.01047.00626-.02518.01728-.04148.03507-.06806.07427-.11381.20671-.0603.36054zm.0706 15.56114c.00003-.0001.00101-.0004.00286-.0005zm.97095-17.738768c-.93385-.471485-1.88892-.1527162-2.455779.465878-.559424.61048-.797851 1.5509-.441106 2.45975.006193.01578.012786.0314.019772.04684l2.890803 6.38925c.10348.2659.10348.56095-.00001.82685l-2.890796 6.3894c-.006985.0154-.013577.0311-.019769.0468-.355591.9059-.1216823 1.8501.449867 2.4579.582468.6195 1.546138.8989 2.462818.4005l15.26427-6.9837c.0261-.0119.0516-.0249.0765-.039.4807-.2721.8803-.6667 1.1585-1.1437.2781-.4771.4247-1.0194.4247-1.57158 0-.55219-.1466-1.09452-.4247-1.57159-.2782-.47698-.6778-.87164-1.1585-1.14367-.0249-.01411-.0504-.02714-.0765-.03906z" fill="#9f8fca"/></g></svg>